<svg xmlns="http://www.w3.org/2000/svg" width="1613" height="222" viewBox="0 0 1613 222">
    <path fill="#1F5153" fill-rule="nonzero" d="M151.436 60.48h-45.839c-13.68 34.8-44.639 58.56-93.357 72.24L0 107.76c50.399-13.44 74.638-37.2 78.718-67.2H12V15.12h101.277c0 6.96-.48 13.68-1.44 20.16h39.6V.24h31.678v127.2h-31.679v-21.12h-48.719V80.88h48.72v-20.4zM110.157 195.6c27.12 0 43.2-6.96 43.2-20.4 0-13.44-16.08-20.4-43.2-20.4-27.36 0-43.439 6.96-43.439 20.4 0 13.44 16.08 20.4 43.44 20.4zm0-65.28c44.88 0 74.398 17.28 74.398 44.88s-29.519 44.88-74.398 44.88c-45.119 0-74.638-17.28-74.638-44.88s29.52-44.88 74.638-44.88zM246.354 23.04H352.43c0 67.68-22.8 122.88-101.277 160.8l-16.56-24.96c56.399-27.12 80.878-61.68 85.438-110.64h-73.678v-25.2zM386.27 0h31.92v221.04h-31.92V0zm228.835 74.88V35.76h-90.958v39.12h90.958zm30.959-64.32v89.28H492.948V10.56h153.116zm24 112.8v25.2h-44.88V222h-31.679v-73.44h-46.319V222h-31.439v-73.44h-45.839v-25.2h200.155zM791.14 47.52v12.24c0 36 17.76 74.16 54.719 89.52l-17.28 24.96c-25.679-11.04-43.198-32.64-53.038-59.28-9.84 28.8-27.6 53.04-53.519 64.8l-18-25.2c36.96-16.56 54.96-57.12 54.96-94.8V47.52h-46.08V21.36H836.74v26.16H791.14zM857.14.24h31.679v221.04h-31.68V.24zm153.236 159.84v33.84h84.958v-33.84h-84.958zm-31.2 58.56v-83.28h147.117v83.28H979.176zm23.28-125.76c16.32 0 28.08-10.32 28.08-27.6 0-16.8-11.76-26.64-28.08-26.64-16.08 0-27.84 9.84-27.84 26.64 0 17.28 11.76 27.6 27.84 27.6zM1094.613.24h31.68v125.28h-31.68V78h-35.04c-6 24.72-28.559 41.28-57.118 41.28-32.879 0-58.078-22.32-58.078-54 0-30.96 25.199-53.52 58.078-53.52 28.32 0 50.879 16.56 56.879 40.56h35.279V.24zm135.236 45.84v98.16c7.44-.24 15.12-.48 22.8-.72V46.08h-22.8zm53.28 0v95.28c8.639-.72 17.279-1.2 25.439-2.4l1.92 23.04c-44.88 7.92-95.038 8.88-132.717 8.88l-3.36-25.92h24.72V46.08h-18.96V20.64h121.917v25.44h-18.96zm99.357 37.68v26.16h-32.16v111.6h-31.679V.48h31.68v83.28h32.159zm46.919.96l131.756-4.32c.48-12.24.48-23.76.48-35.04v-.48h-125.997v-25.2h157.197v25.68c0 32.16 0 62.64-10.32 110.64l-31.2-3.12c4.32-18 6.72-34.08 8.16-48.96l-126.237 6.48-3.84-25.68zm-16.08 84.48H1613v25.92h-199.675V169.2z" opacity=".06"/>
</svg>
