<svg xmlns="http://www.w3.org/2000/svg" width="414" height="190" viewBox="0 0 414 190">
    <g fill="#1F5153" fill-rule="evenodd" opacity=".04">
        <path d="M35 109.312L121.54 109.316 121.54 188.5 138 188.5 138 94.25 35 94.25zM155 109.312L241.513 109.316 241.513 188.5 258 188.5 258 94.25 155 94.25zM276 109.656L379 109.656 379 94.25 276 94.25zM276 188.5L379 188.5 379 173.094 276 173.094z" transform="translate(0 .469)"/>
        <path d="M389.484 1.175C385.21.11 380.569.005 376.066.877c-.402.079-.763.156-1.053.231L212.067 43.153c-1.601.412-3.255.604-5.204.604-1.895 0-3.646-.204-5.202-.604L38.71 1.107c-.287-.074-.647-.151-1.05-.23-4.501-.87-9.142-.767-13.418.298C10.326 4.646.606 16.245.606 29.381v159.74H17.1l.015-160.385c.2-4.031 2.441-7.738 6.149-10.168 3.916-2.569 8.797-3.361 13.393-2.177l161.644 41.664c2.676.691 5.556 1.04 8.561 1.04 3.047 0 5.848-.34 8.561-1.04l161.644-41.664c4.597-1.186 9.478-.392 13.394 2.177 3.708 2.43 5.949 6.137 6.146 10.089l.019 160.463h16.494V29.381c0-13.136-9.72-24.735-23.637-28.206" transform="translate(0 .469)"/>
    </g>
</svg>
