<svg xmlns="http://www.w3.org/2000/svg" width="1613" height="174" viewBox="0 0 1613 174">
    <path fill="#1F5153" d="M86.158 174C36.719 174 0 135.787 0 87.48V87C0 39.174 36 0 87.598 0c31.679 0 50.639 10.575 66.238 25.956l-23.52 27.157c-12.959-11.776-26.159-18.986-42.958-18.986-28.32 0-48.719 23.553-48.719 52.392V87c0 28.84 19.92 52.873 48.719 52.873 19.2 0 30.96-7.69 44.159-19.707l23.52 23.793C137.756 162.464 118.556 174 86.156 174zm179.995 0c-51.838 0-89.037-38.693-89.037-86.52V87c0-47.826 37.679-87 89.517-87 51.84 0 89.038 38.693 89.038 86.52V87c0 47.826-37.679 87-89.518 87zm.48-34.127c29.76 0 50.4-23.553 50.4-52.392V87c0-28.84-21.12-52.873-50.88-52.873-29.759 0-50.398 23.553-50.398 52.392V87c0 28.84 21.12 52.873 50.878 52.873zm121.917 31.243V2.884h36.96V137.47h83.757v33.646H388.55zm148.557 0V2.884h36.959V137.47h83.758v33.646H537.107zm148.556 0V2.884H812.38v32.925h-89.998v34.127h79.198v32.926h-79.198v35.329h91.198v32.925H685.663zM925.177 174c-49.439 0-86.158-38.213-86.158-86.52V87c0-47.826 36-87 87.598-87 31.68 0 50.639 10.575 66.238 25.956l-23.519 27.157c-12.96-11.776-26.16-18.986-42.959-18.986-28.32 0-48.719 23.553-48.719 52.392V87c0 28.84 19.92 52.873 48.719 52.873 19.2 0 30.96-7.69 44.159-19.707l23.52 23.793C976.775 162.464 957.575 174 925.176 174zm137.517-2.884V37.011h-51.12V2.884h139.197v34.127h-51.118v134.105h-36.96zm118.077 0V2.884h36.959v168.232h-36.96zM1341.327 174c-51.839 0-89.038-38.693-89.038-86.52V87c0-47.826 37.679-87 89.518-87 51.838 0 89.038 38.693 89.038 86.52V87c0 47.826-37.68 87-89.518 87zm.48-34.127c29.759 0 50.398-23.553 50.398-52.392V87c0-28.84-21.119-52.873-50.878-52.873-29.76 0-50.399 23.553-50.399 52.392V87c0 28.84 21.12 52.873 50.879 52.873zm121.917 31.243V2.884h34.079l78.718 103.583V2.884H1613v168.232h-31.44l-81.357-106.947v106.947h-36.48z" opacity=".06"/>
</svg>
