<svg xmlns="http://www.w3.org/2000/svg" width="1487" height="174" viewBox="0 0 1487 174">
    <path fill="#1F5153" fill-rule="nonzero" d="M0 170.88v-168h126.72v32.88h-90v34.08h79.2v32.88h-79.2V138h91.2v32.88H0zm160.8 0v-168h65.52c52.8 0 89.28 36.24 89.28 83.52v.48c0 47.28-36.48 84-89.28 84H160.8zm65.52-134.64h-28.56v101.28h28.56c30.24 0 50.64-20.4 50.64-50.16v-.48c0-29.76-20.4-50.64-50.64-50.64zm192.24 137.28c-45.12 0-72.72-25.2-72.72-74.64v-96h36.96v95.04c0 27.36 13.68 41.52 36.24 41.52 22.56 0 36.24-13.68 36.24-40.32V2.88h36.96v94.8c0 50.88-28.56 75.84-73.68 75.84zm190.08.24c-49.44 0-86.16-38.16-86.16-86.4v-.48c0-47.76 36-86.88 87.6-86.88 31.68 0 50.64 10.56 66.24 25.92L652.8 53.04c-12.96-11.76-26.16-18.96-42.96-18.96-28.32 0-48.72 23.52-48.72 52.32v.48c0 28.8 19.92 52.8 48.72 52.8 19.2 0 30.96-7.68 44.16-19.68l23.52 23.76c-17.28 18.48-36.48 30-68.88 30zm84-2.88l72-169.2h34.08l72 169.2h-38.64l-15.36-37.68h-71.04l-15.36 37.68h-37.68zm66.24-70.32h44.64L781.2 46.08l-22.32 54.48zm176.88 70.32V36.96h-51.12V2.88h139.2v34.08h-51.12v133.92h-36.96zm118.08 0v-168h36.96v168h-36.96zm160.56 2.88c-51.84 0-89.04-38.64-89.04-86.4v-.48c0-47.76 37.68-86.88 89.52-86.88 51.84 0 89.04 38.64 89.04 86.4v.48c0 47.76-37.68 86.88-89.52 86.88zm.48-34.08c29.76 0 50.4-23.52 50.4-52.32v-.48c0-28.8-21.12-52.8-50.88-52.8S1164 57.6 1164 86.4v.48c0 28.8 21.12 52.8 50.88 52.8zm121.92 31.2v-168h34.08l78.72 103.44V2.88h36.48v168h-31.44l-81.36-106.8v106.8h-36.48z" opacity=".06"/>
</svg>
