<svg xmlns="http://www.w3.org/2000/svg" width="1363" height="174" viewBox="0 0 1363 174">
    <path fill="#1F5153" fill-rule="nonzero" d="M.16 171V3h126.72v32.88h-90v34.08h79.2v32.88h-79.2v35.28h91.2V171H.16zM264.64 3h42l-56.16 82.08L309.04 171h-43.2l-37.68-57.6-37.92 57.6h-42l58.56-85.44L150.64 3h43.2l35.04 54.48L264.64 3zm72 168V3h36.96v66.48h68.16V3h36.96v168h-36.96v-67.44H373.6V171h-36.96zm184.08 0V3h36.96v168h-36.96zm78.96 0V3h78c19.2 0 34.32 5.28 43.92 14.88 7.68 7.68 11.52 17.04 11.52 28.56v.48c0 18.96-10.08 29.52-22.08 36.24 19.44 7.44 31.44 18.72 31.44 41.28v.48c0 30.72-24.96 46.08-62.88 46.08h-79.92zM696.4 53.16v-.48c0-11.04-8.64-17.28-24.24-17.28h-36.48v35.52h34.08c16.32 0 26.64-5.28 26.64-17.76zm9.36 66.72c0-11.28-8.4-18.24-27.36-18.24h-42.72v36.96h43.92c16.32 0 26.16-5.76 26.16-18.24v-.48zM774.64 171V3h36.96v168h-36.96zm118.08 0V37.08H841.6V3h139.2v34.08h-51.12V171h-36.96zm198 2.88c-51.84 0-89.04-38.64-89.04-86.4V87c0-47.76 37.68-86.88 89.52-86.88 51.84 0 89.04 38.64 89.04 86.4V87c0 47.76-37.68 86.88-89.52 86.88zm.48-34.08c29.76 0 50.4-23.52 50.4-52.32V87c0-28.8-21.12-52.8-50.88-52.8s-50.4 23.52-50.4 52.32V87c0 28.8 21.12 52.8 50.88 52.8zm121.92 31.2V3h34.08l78.72 103.44V3h36.48v168h-31.44L1249.6 64.2V171h-36.48z" opacity=".06"/>
</svg>
