<svg xmlns="http://www.w3.org/2000/svg" xmlns:xlink="http://www.w3.org/1999/xlink" width="255" height="54" viewBox="0 0 255 54">
    <defs>
        <path id="prefix__a" d="M0 53.1L254.841 53.1 254.841 0.879 0 0.879z"/>
    </defs>
    <g fill="none" fill-rule="evenodd">
        <path fill="#FEFEFE" d="M56.738 34.744L56.062 33.447 55.474 33.447 56.458 35.28 55.763 36.606 56.344 36.606 57.933 33.447 57.359 33.447z"/>
        <g transform="translate(0 .021)">
            <path fill="#FEFEFE" d="M59.645 33.838c.26 0 .447.152.52.418h-1.03c.063-.257.26-.418.51-.418m.029 1.448c-.323 0-.544-.234-.571-.606h1.583v-.14c0-.713-.404-1.173-1.04-1.173-.658 0-1.074.466-1.074 1.206 0 .7.439 1.18 1.084 1.18.47 0 .782-.201 1.053-.659l-.432-.246c-.206.338-.345.438-.603.438M69.145 35.286c-.374 0-.615-.285-.615-.722 0-.442.241-.73.608-.73s.62.296.62.717c0 .441-.247.735-.613.735zm.592-1.602c-.177-.205-.422-.317-.692-.317-.602 0-1.037.509-1.037 1.21 0 .678.435 1.175 1.03 1.175.277 0 .49-.098.699-.319v.31c0 .475-.182.707-.56.707-.206 0-.406-.104-.495-.264-.051-.09-.069-.175-.082-.37h-.502c.009.674.416 1.1 1.073 1.1.38 0 .703-.155.89-.434.145-.217.184-.414.184-.854v-2.202h-.508v.258zM73.32 34.332h.87c-.044.503-.518.91-1.046.91-.694 0-1.27-.609-1.27-1.337 0-.761.567-1.354 1.298-1.354.432 0 .76.178 1.063.587l.368-.368c-.426-.505-.86-.728-1.417-.728-1.033 0-1.844.817-1.844 1.863 0 1.016.8 1.847 1.787 1.847.526 0 1.027-.254 1.322-.676.215-.299.31-.62.31-1.086v-.166H73.32v.508zM53.269 34.332h.872c-.047.503-.517.91-1.05.91-.693 0-1.263-.609-1.263-1.337 0-.761.563-1.354 1.29-1.354.443 0 .761.178 1.061.587l.38-.368c-.435-.505-.86-.728-1.429-.728-1.028 0-1.846.817-1.846 1.863 0 1.016.813 1.847 1.79 1.847.537 0 1.031-.254 1.332-.676.215-.299.308-.62.308-1.086v-.166H53.27v.508zM79.273 33.888c0 1.05.801 1.864 1.827 1.864.326 0 .635-.086.94-.267v-.65c-.333.292-.603.407-.928.407-.742 0-1.304-.58-1.304-1.336 0-.756.563-1.355 1.28-1.355.352 0 .623.114.952.388v-.632c-.322-.194-.566-.265-.94-.265-.987 0-1.827.844-1.827 1.846"/>
            <mask id="prefix__b" fill="#fff">
                <use xlink:href="#prefix__a"/>
            </mask>
            <path fill="#FEFEFE" d="M98.073 35.683L98.588 35.683 98.588 31.941 98.073 31.941zM86.019 35.683L86.532 35.683 86.532 31.941 86.019 31.941zM120.766 32.528L120.254 32.528 120.254 33.426 119.994 33.426 119.994 33.912 120.254 33.912 120.254 35.684 120.766 35.684 120.766 33.912 121.209 33.912 121.209 33.426 120.766 33.426zM88.286 32.528L87.776 32.528 87.776 33.426 87.515 33.426 87.515 33.912 87.776 33.912 87.776 35.684 88.286 35.684 88.286 33.912 88.731 33.912 88.731 33.426 88.286 33.426zM93.107 33.629v-.204h-.515v2.258h.515v-1.17c0-.444.131-.648.414-.648.11 0 .17.027.283.115l.233-.482c-.169-.107-.264-.138-.42-.138-.2 0-.322.065-.51.269M101.596 35.684L102.129 35.684 102.129 33.973 103.306 33.973 103.306 33.461 102.129 33.461 102.129 32.588 103.348 32.588 103.348 32.076 101.596 32.076zM108.813 34.723c0 .386-.134.563-.426.563-.3 0-.435-.177-.435-.563v-1.297h-.51v1.31c0 .352.063.546.228.73.18.188.423.287.717.287.287 0 .524-.099.7-.288.17-.183.232-.377.232-.729v-1.31h-.506v1.297zM90.959 34.723c0 .386-.14.563-.436.563-.293 0-.428-.177-.428-.563v-1.297h-.515v1.31c0 .352.066.546.234.73.179.188.421.287.709.287.293 0 .534-.099.714-.288.167-.183.232-.377.232-.729v-1.31h-.51v1.297zM84.371 34.723c0 .386-.137.563-.437.563-.292 0-.427-.177-.427-.563v-1.297H83v1.31c0 .352.059.546.227.73.18.188.42.287.708.287.295 0 .537-.099.717-.288.167-.183.23-.377.23-.729v-1.31h-.51v1.297zM114.594 35.286c-.356 0-.613-.305-.613-.73 0-.42.257-.722.613-.722.378 0 .639.296.639.721 0 .437-.26.731-.64.731zm.607-1.597c-.22-.23-.424-.322-.695-.322-.591 0-1.042.505-1.042 1.174 0 .701.442 1.212 1.049 1.212.264 0 .468-.093.688-.306v.236h.507v-3.742h-.507v1.748zM117.87 35.286c-.353 0-.61-.305-.61-.73 0-.42.259-.722.61-.722.374 0 .636.3.636.721 0 .437-.262.731-.637.731zm.603-1.597c-.225-.23-.414-.322-.692-.322-.58 0-1.035.505-1.035 1.174 0 .706.44 1.212 1.042 1.212.271 0 .443-.08.685-.306v.236h.508v-2.257h-.508v.263zM95.79 35.286c-.354 0-.608-.305-.608-.73 0-.42.263-.722.608-.722.375 0 .635.3.635.721 0 .437-.26.731-.635.731zm.603-1.597c-.223-.23-.412-.322-.692-.322-.589 0-1.041.505-1.041 1.174 0 .706.442 1.212 1.052 1.212.269 0 .44-.08.681-.306v.236h.512v-2.257h-.512v.263zM122.38 32.19c-.187 0-.333.151-.333.338 0 .191.148.336.327.336.183 0 .338-.145.338-.336 0-.187-.146-.338-.332-.338M122.124 35.683L122.631 35.683 122.631 33.425 122.124 33.425zM76.111 32.19c-.187 0-.335.151-.335.338 0 .191.152.336.33.336.186 0 .337-.145.337-.336 0-.187-.148-.338-.332-.338M75.856 35.683L76.362 35.683 76.362 33.425 75.856 33.425zM124.805 35.286c-.396 0-.657-.29-.657-.722 0-.442.261-.73.657-.73.4 0 .663.288.663.73 0 .432-.262.722-.663.722m.003-1.92c-.668 0-1.18.522-1.18 1.198 0 .666.52 1.188 1.18 1.188.667 0 1.17-.522 1.17-1.188 0-.676-.503-1.197-1.17-1.197M105.238 35.286c-.399 0-.664-.29-.664-.722 0-.442.265-.73.664-.73.394 0 .655.288.655.73 0 .432-.26.722-.655.722m.004-1.92c-.675 0-1.188.522-1.188 1.198 0 .666.52 1.188 1.188 1.188.656 0 1.174-.522 1.174-1.188 0-.676-.518-1.197-1.174-1.197M62.862 35.286c-.394 0-.653-.29-.653-.722 0-.442.26-.73.653-.73.4 0 .667.288.667.73 0 .432-.268.722-.667.722m.006-1.92c-.667 0-1.182.522-1.182 1.198 0 .666.523 1.188 1.182 1.188.666 0 1.18-.522 1.18-1.188 0-.676-.514-1.197-1.18-1.197M128.112 33.367c-.246 0-.398.068-.597.268v-.21h-.507v2.258h.507v-1.087c0-.559.128-.762.468-.762.315 0 .413.146.413.588v1.261h.515v-1.385c0-.632-.255-.931-.8-.931M66.169 33.367c-.243 0-.386.068-.585.268v-.21h-.51v2.258h.51v-1.087c0-.559.127-.762.456-.762.32 0 .416.146.416.588v1.261h.514v-1.385c0-.632-.26-.931-.801-.931M111.597 33.367c-.244 0-.4.068-.598.268v-.21h-.506v2.258h.506v-1.087c0-.559.127-.762.469-.762.319 0 .417.146.417.588v1.261h.511v-1.385c0-.632-.255-.931-.8-.931M18.03 18.859c-1.945 1.031-3.668 2.688-4.386 5.315.723 1.326 1.946 2.108 2.653 2.458h7.318c-5.257-3.273-5.57-7.143-5.584-7.773M2.958 4.567s1.4-3.119 2.749-1.341c1.338 1.78.387 3.194-.552 2.99-.908-.225-2.425-.49-2.197-1.65M8.88 6.939c1.124-1.665-.776-4.586-1.936-6.06H0v7.54c1 .225 2.547.839 1.884 2.557-.921 2.491-1.01-.466-1.01-.466S.934 9.71 0 9.524v3.136c4.834.978 7.567-3.71 8.88-5.722" mask="url(#prefix__b)"/>
            <path fill="#FEFEFE" d="M12.034 17.49l.379-1.82c.316-.772.218-.735.296-.942.058-.153.404-.463.404-.463l.01-.028c.106-.285.206-.548.296-.813.13-.858.556-1.786.556-1.786l.001.005c.72-3.021-2.414-4.767-2.66-4.056-.16.45-.917 1.358-.917 1.358l-.209.182-.195.246-.178.272c-.414.445-1.107 1.054-1.107 1.054l-.227.19-.109.13c-.547.467-1.227.924-1.227.924-.45.317-.964.633-1.504.916-2.395 1.237-4.588 1-5.643.757v13.016h12.899c-2.083-2.546-1.7-6.048-.865-9.142M8.733 1.602s.185.181.346.353c0 0 .082.153.15.34 0 0 .362.535.838 1.29l.419.308c.454.241.454.334.454.334l.103.112s-.076.026.054.074c0 0 .37.094.717.24l.721.22.405.38.064.158c1.512 1.255 2.353 3.262 2.74 4.355l1.306.887.04.112s.525.151 1.265.578c0 0 .427.392.7.654 2.34 1.257 3.7 2.577 4.465 3.787.69-.073 1.455-.106 2.235-.1V.879H8.22c.077.099.151.2.214.302 0 0 .173.253.3.421M24.147 17.167c.78 2.444-.585 4.283-.585 4.283-.607-.477-.691-1.953-.691-1.953-.023-.744-.211-1.446-.512-2.098-1.1.206-2.36.546-3.606 1.093-.007 4.213 5.596 6.61 7.002 7.153v-8.538s-.611-.02-1.608.06" mask="url(#prefix__b)"/>
            <path fill="#FEFEFE" d="M16.524 12.209s.026.019.062.07c-.001.167-.006.727-.02.816-.013.055-.017.28 0 .316.012.036.022.112-.035.205-.115.187-.09.376-.09.376l-.096.344-.093.207-.047.153-.062.1s-.084.102-.183.342c-.082.188-.099.373-.1.39l-.377.737c-.085.135-.169.137-.495.507-.348.366-.375.561-.375.561l-.08.422-.267.645c-1.258 2.151-1.34 3.83-.892 5.098.757-2.556 2.81-6.188 8.228-7.397-1.866-2.489-5.078-3.892-5.078-3.892M72.747 21.398c-2.138 2.225-5.118 3.468-7.982 1.873-6.695-3.714-4.19-10.148-.743-15.46.405-.645.757-1.23 1.066-1.776-.932-2.3-1.152-4.058-1.174-5.156H51.552V26.63h6.473l-3.247-4.122c-3.598-5.603 1.522-6.15 3.328-4.188 1.683 1.827-.376 2.895-1.253 2.094-.894-.806.148-1.328.148-1.328s-.746-1.162-1.534-.731c-.81.454-.34 1.47.062 2.466.233.585.811 1.197 1.107 1.61 1.828 2.52 3.435 3.694 4.692 4.2h11.17c.217-.908.545-2.801.25-5.234" mask="url(#prefix__b)"/>
            <path fill="#FEFEFE" d="M67.945 11.156c-.356.238-.702.56-1.038.974-2.393 2.912-.053 6.645 1.459 5.384.858-.707 1.324-.27 1.324-.27 1.323 1.467-.403 1.868-.403 1.868-4.075.751-5.66-3.304-4.2-6.415.522-1.119 1.276-1.977 2.186-2.527-.622-.95-1.129-1.852-1.533-2.696-1.04 1.263-2.107 2.594-2.947 4.848-2.339 6.335 1.919 9.286 4.925 9.045 1.547-.121 3.252-1.124 4.522-2.49-.568-2.006-1.591-4.22-3.364-6.49-.331-.41-.64-.836-.931-1.231" mask="url(#prefix__b)"/>
            <path fill="#FEFEFE" d="M77.335 22.363V.879H69.03c-.454 2.565-1.318 4.065-2.312 5.373.408 1.034.95 2.183 1.669 3.405 2.02-.643 4.456.011 6.476 2.348 1.69 1.934.848 5.555-1.205 8.317.668 2.88.691 5.254.655 6.31h3.022v-4.269zM67.015.879H65.56c.02.764.126 1.867.468 3.226.62-1.429.884-2.507.987-3.226" mask="url(#prefix__b)"/>
            <path fill="#FEFEFE" d="M68.997 10.625c.279.438.576.864.9 1.318 1.448 1.979 2.428 4.054 3.092 6.016.777-1.108 1.252-2.355 1.193-3.529-.105-2.105-2.64-4.57-5.185-3.805" mask="url(#prefix__b)"/>
            <path fill="#E8E8E8" d="M103.121 24.033c-.814 1.073-1.717 1.932-2.653 2.599h2.653V24.032z" mask="url(#prefix__b)"/>
            <path fill="#FEFEFE" d="M123.25 4.704c.393-.292.284.204.284.204s-1.474 1.499-2.274 2.88c-.8 1.362-1.32.524-1.32.524-.464-.39.273-1.54.796-2.058.515-.526.371.287.371.287s-.723.961-.733 1.317c-.016.337.342.04.641-.5.305-.521 1.845-2.34 2.234-2.654zm-1.812 6.628c-.262 3.09-2.602 4.791-2.956 5.005-.353.216-.717.39-.92.087-.172-.25.117-.452.117-.452 3.569-2.289 3.144-5 3.144-5s.003-.419.411-.34c.255.056.204.7.204.7zm-3.861-1.97c-1.174.197-1.843 1.468-2.265 2.174-.431.71-.776-.024-.776-.024-.078-.095-.039-.27-.002-.407.51-2.015 2.4-2.434 2.4-2.434.534-.172.815.205.851.46.037.229-.208.231-.208.231zM120.789.88c-.926.75-.132 2.179-.132 2.179-.543 2.405-1.134 3.615-4.481 4.794-3.36 1.16-3.49 5.596-3.49 5.596-.52 4.727-2.286 7.593-2.611 8.085 4.56-6.754 4.74-5.546 4.74-5.546-1.516 1.554-3.756 5.713-3.756 5.713-.96 1.348-1.606.189-1.606.189 1.616-2.015 1.927-4.626 2.254-8.226.258-2.86.633-5.863 4.21-6.367 3.56-.483 3.999-4.159 3.999-4.159-.502-1.104-.305-1.866-.081-2.258h-16.714v10.137c.116-.09 5.127-4.013 6.887-7.035 0 0 1.902-3.17 7.814 1.325 0 0 .283.3.158.523-.234.42-.623.35-.98.006 0 0-4.479-4.028-6.69-1.141 0 0-3.034 4.953-7.189 7.158v10.526c.687-.257 4.08-1.207 9.616 3.183.553.43 1.125.788 1.709 1.07h6.561c.654-.413.973-1.316-1.024-3.25 0 0 5.594 1.656 8.185-5.188.519-1.524.692-2.757.742-3.327v-2.423c-2.104-.35-4.815-2.56-4.815-2.56s-.294-.234-.154-.607c.137-.386.366-.2.366-.2s2.043 2.166 4.544 2.944l.06-.008V3.106c-2 2.891-3.126 2.936-3.598 2.728-.376 1.453-1.804 2.133-1.918 5.144-.007 8.469-6.177 8.043-8.283 8.893-2.2.888-3.983 3.312-3.983 3.312l-.151-.955c3.14-5.164 4.932-7.381 5.88-8.322.805-.972 1.498-1.422 1.504-1.427.157-.115.8-.646.19-1.256-.697-.688-1.518.259-1.24 1.198 0 0-.671.419-.42-.482.25-.902.854-2.225 2.16-1.236 1.31 1-.51 2.33-.51 2.33-1.04.592-1.327.989-1.357 1.035l-.004.001v.003l-5.177 7.7c1.524-2.02 3.653-2.808 3.653-2.808 7.522-1.753 6.748-8.017 6.748-8.017s-.094-1.681.86-3.044l1.389-2.43s-.124-1.665-1.426-2.213c0 0-.706-.374-.452-.76.24-.368.27-.32.929.002.434.213 1.54 1.262 1.67 2.525.778.702 2.95-2.237 3.535-3.055V.88h-8.12z" mask="url(#prefix__b)"/>
            <path fill="#FEFEFE" d="M122.814 26.632h6.097v-9.405c-2.373 8.168-5.342 9.26-6.097 9.405M103.121 24.042v2.59h9.262c-.318-.196-.619-.422-.895-.685-5.287-4.964-7.515-2.691-8.367-1.905M.875 10.508s.088 2.958 1.009.467C2.547 9.256 1 8.643 0 8.42v1.105c.935.186.875.984.875.984" mask="url(#prefix__b)"/>
            <path fill="#C8C8C9" d="M89.363 19.922c-.995 2.753-4.87 8.197-12.028 4.754v1.956h13.156c-1.017-1.552-1.234-4.083-1.128-6.71" mask="url(#prefix__b)"/>
            <path fill="#C8C8C9" d="M89.47 18.257c.018-.256.044-.516.07-.785-.126-.187-.395-.186-.95.83-1.033 1.872-6.18 6.54-11.255-.803v4.864s6.874 6.526 12.135-4.106M77.923 3.437c3.859-1.844 9.113-3.542 9.783-.01.055.29.124.656.195 1.1l.017-.103s.88-1.468 3.332-.17c1.837.976 6.242 2.66 8.631-3.375H77.336v2.855c.18-.091.375-.196.587-.297" mask="url(#prefix__b)"/>
            <path fill="#C8C8C9" d="M78.24 7.851l.343-.196s.263-.14.674-.279c.44-.15 1.812-.44 1.812-.44l.273-.048.51.074.56-.131s.29-.262.525-.34c.434-.159 1.25-.317 1.25-.317.504-.079 1.597-.132 1.597-.132.346-.021.89.113.89.113s-.042.393-.045.497c-.006.3-.135.406-.135.406s-.126.385-.501.457c-.375.067-.794.279-.794.279s-.42.02-.558.008c-.14-.007-.32-.02-.46-.026l-.137-.011-.274-.092-.205-.045c-.121-.095-.627-.236-.627-.236l-.48-.421-.276.014s.598 1.784.618 1.908c.044.323.25.747.25.747l.177.66.464.222s-.062.194-.159.329l-.1.133c-.146.215-.3.294-.3.294l-.098.004-.137-.008c-.235-.052-.358-.052-.358-.052l-.654-.097s-.048-.243-.039-.382c.005-.136.001-.82.001-.82l-.123-.931.013-.609.19-1.083-.791 1.25-1.051.387-.925.111s-.545-.025-.672-.075c-.26-.097-.73-.666-.73-.666l.482-.456zm6.721 4.726l-.52.026-.562.19-.56.186.03.729.908-.179.652-.072-.138.667s-.514.217-.658.25c-.136.032-.681.127-.813.024-.132-.101-.407-.833-.407-.833s.261-.4.315-.53c.056-.127-1.624.45-1.624.45l-.043-.668.49.01 1.126-.672 1.006-.196.9.05.419-.089.264.312-.785.345zm.429 3.12C88.405 14.67 88 7.14 87.47 4.932c-.577-2.464-2.293-2.186-2.293-2.186s-7.075.768-7.843 2.305v5.99c2.539 6.379 6.94 5.046 8.055 4.656z" mask="url(#prefix__b)"/>
            <path fill="#C8C8C9" d="M91.018 4.773s-2.12-1.188-2.946.872c.525 3.732.947 9.848-1.649 10.872-3.433 1.368-6.275.694-7.821-.688.041 1.3 1.198 3.586 3.719 4.366 4.586 1.417 5.848-2.426 5.848-2.426s.569-1.688 1.614-2.402c.214-1.647.443-3.107.534-4.071.122-1.303.615-2.053 1.357-2.441 0 0 1.034-.767 3.6-.056.573.119 1.184.29 1.807.477 1.772.438 3.205.735 3.858.777.464.029 1.32.27 2.183.614V.879h-1.317s-3.031 8.108-10.787 3.894" mask="url(#prefix__b)"/>
            <path fill="#C8C8C9" d="M98.936 18.856l-.223-.11s-.335-.282-.447-.455c-.112-.163-.393-.662-.393-.662l.562-.281s.443-.164.665-.164c.22 0 .782-.107.95 0 .158.108.158.055.381.164.22.106.552.449.552.449s.278.277.393.44c.112.167.224.452.224.452l.167.274s.5.27-.335.214c-.838-.05-.56-.05-.838-.05h-.492c-.275 0-.944-.164-1.166-.27m-1.726-1.234l.047 1.61-.563 1.968-1.842-.157s2.188-4.022 2.188-4.136v-.172c0-.827.611-.608 1.226-.608.612 0 1.145.123 1.394.17.397.069 1.047.324 1.047.324l.308.19.246.151-1.38-.295s-.51-.064-.732-.064c-.222 0-.601-.092-.937.075-.339.171-.394.229-.673.398-.276.162-.33.546-.33.546m-.096 6.024h-.58c-.134 0 .135-.047-.495 0-.623.042-.536.089-.933.042-.406-.042-.316.178-1.124-.229-.8-.391-.8-.347-.98-.613-.18-.275-.09-.228-.27-.494-.181-.262-.27-.717-.27-.717s-.137-.15 1.117.207c1.252.361 1.586.544 1.72.59.134.042.77.203.965.414.243.253.164.159.568.513.402.357.282.287.282.287m-4.883-8.174l.248-.085s.218-.114.374-.16c.164-.047.488-.07.488-.07s.384-.032.58.018c.194.049.165.085.328.107.164.019.45.375.593.49.023.022.046.05.072.08-.004-.538-.318-1.232-1.335-1.766 0 0 2.454.78 1.79 2.617 0 0-.44.167-.603.215-.157.044-.512.04-.512.04l-.2-.05c-.194-.05-.699-.307-.872-.452-.175-.143-.14-.116-.315-.26-.172-.15 0 0-.549-.419-.545-.397-.087-.305-.087-.305m10.892 5.609v-7.81c-.764-.927-2.73-1.877-4.113-2.139-.689-.138-1.454-.337-2.206-.54-1.37-.418-2.242-.596-2.242-.596l-.038-.01c-.347-.081-.848-.166-1.137-.107-.423.075-1.63.15-2.256 3.167-.553 2.625-2.82 11.206.72 13.585h6.465c1.951-.842 3.424-2.536 4.807-5.55M43.308 19.75c5.718.431 7.306-4.202 7.622-5.218.092-.319.044-.613-.148-.844-.416-.533-.47-1.2-2.025-1.038-2.332.243-7.611 1.804-8.695 6.579l-.173.25 1.234.152 2.185.118z" mask="url(#prefix__b)"/>
            <path fill="#C8C8C9" d="M41.002 20.81l-1.49-.31-.461 1.085c-.223.925-.33 1.676-.333 2.352 0 .647.084 1.224.266 1.779.105.315.246.623.41.916h5.802c-.223-.951-.895-2.021-.895-2.021-.448-.678-1.012-1.489-1.02-1.504-.316-.551 1.394.852 1.713 1.189.825.903 1.417 1.674 1.82 2.336h4.737v-7.557c-1.156 1.327-3.234 3.306-10.55 1.735" mask="url(#prefix__b)"/>
            <path fill="#C8C8C9" d="M29.808 9.647c.014-.154.076-.604.37-1.218 0 0 .543-1.128.877-1.426 0 0 .18-.116.354-.204l.037-.015c.003-.004.01-.005.014-.008l.008-.003c.013-.002.237-.037.402-.09 0 0 .337-.1.596-.189 2.254-.222 4.464 1.836 5.384 4.216.496 1.259.79 2.575.862 3.837.052.928-.01 1.83-.194 2.675l-.008.027c-.036.186-.116.543-.236.834l-.117.273.196.136c.157.242.197.219.206.39.005.082-.012.142-.054.184l-.002.01c-.011.008-.025.015-.042.018h.002-.002c-.233.06-.928-.279-1.156-.397l-.278-.137-.357-.157c-2.661-1.312-5.537-2.718-6.442-5.662-.195-.635-.49-1.886-.42-3.094M37.21 6.23c.1-.345 2.844-1.58 3.518 3.727.375 2.89-.693 5.333-.715 4.622.343-2.319-.478-6.845-2.786-8.229-.05-.025-.041-.048-.017-.12m.464 17.787c.163-.972.354-1.864.581-2.716l.244-.84c-3.323-.52-4.378-1.005-6.533-.259-.856.298-1.84 1.146-1.96 1.944-.052.338.035.887.214 1.088.366.419 1.305.546 1.84.544 1.491-.01 3.02-.7 4.211-1.564l.138-.104c.553-.434.726-.462.781-.41.05.05.054.244-.51.933l-.118.14-.153.207c-.407.541-.785 1.066-1.312 1.447-1.404 1.009-3.592 1.198-5.231.454-.649-.282-1.23-.6-1.476-1.201-.47-1.084.334-2.453 1.233-3.384.945-.978 2.375-1.511 4.029-1.52.849-.015 1.679.184 2.499.352.851.178 2.687.32 2.687.32l.074-.205.023-.076c.213-.521.445-1.026.706-1.479 1.347-2.445 3.282-4.37 5.428-5.427 1.028-.502 2.653-1.063 3.946-1.183.711-.065 1.66-.004 2.537.203V8.414c-4.787.123-8.178 2.985-9.453 4.196-.516.485-.264.054-.264.054 4.032-5.942 9.717-6.054 9.717-6.054V.88H40.115c-.274.508-.938 2.156.4 4.21 1.625 2.472 5.091 2.582 5.963.518.876-2.052-2.042-3.141-3.052-2.515-1.033.638-.913 1.597-.218 1.997.88.499 2.585-.191 1.814-1.109-.883-1.037-1.434.24-1.489.407-.056.163-.412-1.23 1.169-1.037 1.578.191 1.213 1.77.202 2.085-1.063.334-2.587.591-2.636-1.404-.052-2.285 5.118-2.409 5.19.687.019.87-.315 1.552-.85 2.03-.04.032-.363.292-1.239.567 0 0-.644.165-.877.206 0 0-.116.019-.14.019 0 0-.317.012-.384.004 0 0-.425-.04-.571-.07 0 0-.09-.016-.178-.058 0 0-.113.021-.248.023 0 0-.157-.009-.312-.039 0 0-.205.008-.33-.03-.02-.006-.038-.015-.057-.024-.062-.028-.217-.101-.3-.157 0 0-.08-.034-.108-.041l-.027-.014c-.229-.118-.436-.274-.618-.455-1.778-1.772-2.374-4.165-1.617-5.697l.093-.103h-13.94v25.753h11.981c-.107-.476-.158-.972-.156-1.482.003-.372.033-.76.094-1.133" mask="url(#prefix__b)"/>
            <path fill="#C8C8C9" d="M37.731 18.18s2.1-4.359-2.668-9.48c-.285-.306-.665-.264-1.176-.621-.575-.387-1.232.135-1.291.195-5.005 5.302 5.135 9.905 5.135 9.905" mask="url(#prefix__b)"/>
            <path fill="#FEFEFE" d="M9.196 45.66L11.337 45.66 11.337 38.579 9.196 38.579 9.196 39.429 7.257 39.429 7.257 41.306 9.196 41.306 9.196 42.51 7.257 42.51 7.257 44.39 9.196 44.39zM13.15 40.549L16.993 40.549 16.993 45.522 19.119 45.522 19.119 38.636 13.15 38.636zM21.97 45.66L24.077 45.66 24.077 38.578 21.97 38.578zM5.97 45.522L5.97 38.636 0 38.636 0 40.55 3.839 40.55 3.839 45.522zM77.202 46.582L75.146 46.582 75.146 52.038 81.676 52.038 81.676 50.124 77.202 50.124zM30.648 46.582L28.601 46.582 28.601 52.038 35.56 52.038 35.56 50.124 30.648 50.124zM26.218 43.538L31.184 43.538 31.184 46.087 33.314 46.087 33.314 43.538 37.56 43.538 37.56 41.602 26.218 41.602zM30.476 37.958h2.838v-2.334h-2.838v2.334zm-2.046 1.898h6.94v-6.13h-6.94v6.13zM51.386 38.579L49.258 38.579 49.258 45.66 51.386 45.66 51.386 42.828 53.523 42.828 53.523 40.957 51.386 40.957zM81.535 40.957L81.535 38.578 79.403 38.578 79.403 45.66 81.535 45.66 81.535 42.828 83.653 42.828 83.653 40.957zM66.775 40.91L65.226 40.91 65.226 38.579 63.235 38.579 63.235 45.66 65.226 45.66 65.226 42.835 66.775 42.835 66.775 45.66 68.765 45.66 68.765 38.579 66.775 38.579zM61.674 40.598L61.674 38.719 55.298 38.719 55.298 40.598 57.186 40.598 54.778 44.582 56.567 45.66 58.483 42.266 60.404 45.66 62.191 44.582 59.785 40.598zM77.701 43.397L73.733 43.397 73.733 40.634 77.557 40.634 77.557 38.72 71.6 38.72 71.6 45.311 77.701 45.311zM43.946 36.366c.662 0 1.214.535 1.214 1.184 0 .656-.552 1.187-1.214 1.187-.662 0-1.214-.53-1.214-1.187 0-.649.552-1.184 1.214-1.184zm1.07 4.041c1.231-.414 2.127-1.537 2.127-2.857 0-.578-.17-1.092-.47-1.52h1.241v-1.878h-2.897v-1.59h-2.141v1.59h-2.891v1.879h1.233c-.3.427-.47.941-.47 1.519 0 1.32.899 2.443 2.128 2.857v1.195h-3.073v1.936h8.295v-1.936h-3.081v-1.195zM8.11 51.223c-.804 0-1.417-.668-1.417-1.484 0-.824.613-1.493 1.417-1.493.762 0 1.412.67 1.412 1.493 0 .816-.65 1.484-1.412 1.484m0-4.855c-1.906 0-3.435 1.51-3.435 3.37 0 1.852 1.529 3.362 3.435 3.362 1.907 0 3.445-1.51 3.445-3.361 0-1.862-1.538-3.37-3.445-3.37" mask="url(#prefix__b)"/>
            <path fill="#C8C8C9" d="M217.08 13.822L216.623 14.275 211.489 14.275 211.033 13.822 211.033 12.823 211.489 12.369 216.623 12.369 217.08 12.823zM200.342 5.72L199.885 6.174 194.751 6.174 194.294 5.72 194.294 4.722 194.751 4.268 199.885 4.268 200.342 4.722zM215.458 6.954L217.099 6.954 217.099 5.629 215.458 5.629z" mask="url(#prefix__b)"/>
            <path fill="#C8C8C9" d="M228.068 15.907h1.77V2.647h-1.77v13.26zm-1.622-3.013l-2.425 2.423h-3.475v-1.695h2.72l1.41-1.408V4.489h-4.13V2.794h5.9v10.1zm-7.596-3.03H217.1V8.613h-2.453l-1.18 1.175h-4.202V8.095h3.447l.995-.993V4.489h-4.442V2.794h6.193V3.97h1.642V2.647h1.751v7.217zm0 4.64l-1.474 1.466h-6.64l-1.474-1.466V12.14l1.474-1.465h6.64l1.474 1.465v2.364zm-16.739-8.101l-1.474 1.466h-6.64l-1.474-1.466V4.039l1.474-1.465h6.64l1.474 1.465v2.364zm0 4.197h-3.614v2.21h-1.77V10.6h-4.204V8.906h9.588V10.6zm-.075 5.233h-9.294l.003-4.201h1.77v2.506h7.52v1.695zm-11.062-.074h-9.588v-1.695h3.91V11.49h-3.614V6.295h7.227V4.49h-7.227V2.794h8.998v5.195h-7.228v1.805h7.228v1.694h-3.615v2.576h3.91v1.695zm-11.285.148h-1.732V9.504h-.96v6.403h-1.769v-.59h-1.714l-1.273-1.616-1.272 1.616h-1.972v-.293l2.36-3V2.646h1.77v9.376l2.101 2.671V2.647h1.77V7.81h.959V2.647h1.732v13.26zM207.491.879v.59h-5.16l-.593-.59h-32.152v10.276l-2.361 3v3.198l1.623.321 42.333 8.399 20.427-8.399V.88h-24.117z" mask="url(#prefix__b)"/>
            <path fill="#FEFEFE" d="M244.531 45.962L244.075 46.415 244.075 47.413 244.531 47.868 249.519 47.868 249.976 47.413 249.976 46.415 249.519 45.962zM194.75 45.962L194.294 46.415 194.294 47.413 194.75 47.868 199.885 47.868 200.342 47.413 200.342 46.415 199.885 45.962zM219.357 42.717L219.813 42.263 219.813 41.117 219.357 40.664 217.32 40.664 216.864 41.117 216.864 42.263 217.32 42.717z" mask="url(#prefix__b)"/>
            <path fill="#FEFEFE" d="M253.072 40.732h-1.329v2.724h-1.769V36.24h1.769v2.797h1.33v1.696zm-1.327 7.364l-1.474 1.467h-6.492l-1.475-1.467v-2.363l1.475-1.466h6.492l1.474 1.466v2.363zm-9.739-4.937l2.802-3.561v-3.359h1.771v3.359l2.802 3.561v.296h-1.97l-1.717-2.18-1.716 2.18h-1.972v-.296zm-3.06 6.34h1.732V36.24h-1.732V49.5zm-.96 0h-1.768v-.59h-1.715l-1.273-1.616-1.273 1.616h-1.974v-.292l2.362-3.002V36.24h1.77v4.87h2.103v-4.87h1.768V49.5zm-12.265-8.328h-1.327v4.79h-1.77V36.24h1.77v3.238h1.327v1.694zm-1.18 8.329h-9.294l.002-4.279h1.772v2.584h7.52V49.5zm-9.448-9.065l1.473-1.465h3.544l1.474 1.465v2.51l-1.474 1.467h-3.544l-1.473-1.467v-2.51zm-1.696 3.021h-1.771v-2.652h-1.92v-1.695h1.92v-2.87h1.77v7.217zm-.001 4.64l-1.474 1.467h-6.64l-1.474-1.467v-2.363l1.475-1.466h6.64l1.473 1.466v2.363zm-10.03-4.937l2.803-3.561V38.08h-2.359v-1.695h6.488v1.695h-2.36v1.518l2.804 3.561v.296h-1.972l-1.715-2.18-1.717 2.18h-1.971v-.296zm11.73-6.479h2.36v-.884h1.77v.884h2.361v1.694h-6.491V36.68zm-12.985 6.547h-9.587v-1.694h2.876v-2.21h1.77v2.21h2.567l.382-1.537v-2h-7.522V36.3h9.293v3.687l-.385 1.546h.606v1.694zm0 4.869l-1.473 1.467h-6.641l-1.473-1.467v-2.363l1.473-1.466h6.64l1.474 1.466v2.363zm52.73-10.827h-1.328V34.47l-42.331-8.398-20.429 8.398v14.653l2.155 2.143h8.819l1.234-1.225 1.231 1.225h22.119v-.59h8.135v.59h16.914l2.155-2.142-.002-6.626h1.329v-5.23z" mask="url(#prefix__b)"/>
            <path fill="#FEFEFE" d="M234.115 45.615L236.218 48.287 236.218 42.803 234.115 42.803zM206.035 45.962L205.578 46.415 205.578 47.413 206.035 47.868 211.169 47.868 211.626 47.413 211.626 46.415 211.169 45.962z" mask="url(#prefix__b)"/>
        </g>
    </g>
</svg>
