<svg xmlns="http://www.w3.org/2000/svg" width="742" height="173" viewBox="0 0 742 173">
    <path fill="#1F5153" fill-rule="nonzero" d="M0 170.4V2.4h34.08l78.72 103.44V2.4h36.48v168h-31.44L36.48 63.6v106.8H0zm189.6 0V2.4h126.72v32.88h-90v34.08h79.2v32.88h-79.2v35.28h91.2v32.88H189.6zm205.2 1.2L337.44 2.4h39.6l34.8 113.76L449.52 1.92h31.68l37.68 114.24L553.68 2.4h38.64l-57.36 169.2H502.8L464.88 61.68 426.96 171.6H394.8zm284.64 1.2c-25.44 0-51.12-8.88-71.28-26.88L630 119.76c15.12 12.48 30.96 20.4 50.16 20.4 15.12 0 24.24-6 24.24-15.84v-.48c0-9.36-5.76-14.16-33.84-21.36-33.84-8.64-55.68-18-55.68-51.36v-.48c0-30.48 24.48-50.64 58.8-50.64 24.48 0 45.36 7.68 62.4 21.36l-19.2 27.84C702 38.88 687.36 32.64 673.2 32.64s-21.6 6.48-21.6 14.64v.48c0 11.04 7.2 14.64 36.24 22.08 34.08 8.88 53.28 21.12 53.28 50.4v.48c0 33.36-25.44 52.08-61.68 52.08z" opacity=".06"/>
</svg>
